<?xml version="1.0" encoding="UTF-8"?>
<svg width="358px" height="44px" viewBox="0 0 358 44" version="1.1" xmlns="http://www.w3.org/2000/svg" xmlns:xlink="http://www.w3.org/1999/xlink">
    <!-- Generator: Sketch 45.1 (43504) - http://www.bohemiancoding.com/sketch -->
    <title>LUKE INDUSTRIES Copy 19</title>
    <desc>Created with Sketch.</desc>
    <defs></defs>
    <g id="Page-1" stroke="none" stroke-width="1" fill="none" fill-rule="evenodd">
        <path d="M0,42.48 L17.46,42.48 L17.46,36.48 L6.6,36.48 L6.6,0.48 L0,0.48 L0,42.48 Z M24.04,0.48 L24.04,32.46 C24.04,39.18 27.4,43.02 33.88,43.02 C40.36,43.02 43.72,39.18 43.72,32.46 L43.72,0.48 L37.48,0.48 L37.48,32.88 C37.48,35.88 36.16,36.96 34.06,36.96 C31.96,36.96 30.64,35.88 30.64,32.88 L30.64,0.48 L24.04,0.48 Z M67.28,42.48 L74.06,42.48 L64.88,19.2 L74.06,0.48 L67.46,0.48 L58.82,18.78 L58.82,0.48 L52.22,0.48 L52.22,42.48 L58.82,42.48 L58.82,29.58 L60.86,25.74 L67.28,42.48 Z M87.66,6.48 L99.06,6.48 L99.06,0.48 L81.06,0.48 L81.06,42.48 L99.06,42.48 L99.06,36.48 L87.66,36.48 L87.66,24.18 L96.72,24.18 L96.72,18.18 L87.66,18.18 L87.66,6.48 Z M120.44,42.48 L127.04,42.48 L127.04,0.48 L120.44,0.48 L120.44,42.48 Z M149.94,42.48 L156.72,42.48 L156.72,0.48 L150.84,0.48 L150.84,25.62 L144.06,0.48 L135.78,0.48 L135.78,42.48 L141.72,42.48 L141.72,12.06 L149.94,42.48 Z M165.46,42.48 L165.46,0.48 L175.9,0.48 C182.5,0.48 185.74,4.14 185.74,10.86 L185.74,32.1 C185.74,38.82 182.5,42.48 175.9,42.48 L165.46,42.48 Z M175.78,6.48 L172.06,6.48 L172.06,36.48 L175.78,36.48 C177.88,36.48 179.14,35.4 179.14,32.4 L179.14,10.56 C179.14,7.56 177.88,6.48 175.78,6.48 Z M193.64,0.48 L193.64,32.46 C193.64,39.18 197,43.02 203.48,43.02 C209.96,43.02 213.32,39.18 213.32,32.46 L213.32,0.48 L207.08,0.48 L207.08,32.88 C207.08,35.88 205.76,36.96 203.66,36.96 C201.56,36.96 200.24,35.88 200.24,32.88 L200.24,0.48 L193.64,0.48 Z M219.98,10.56 C219.98,22.56 232.88,24.18 232.88,32.82 C232.88,35.82 231.56,36.9 229.46,36.9 C227.36,36.9 226.04,35.82 226.04,32.82 L226.04,29.82 L219.8,29.82 L219.8,32.4 C219.8,39.12 223.16,42.96 229.64,42.96 C236.12,42.96 239.48,39.12 239.48,32.4 C239.48,20.4 226.58,18.78 226.58,10.14 C226.58,7.14 227.78,6 229.88,6 C231.98,6 233.18,7.14 233.18,10.14 L233.18,11.88 L239.42,11.88 L239.42,10.56 C239.42,3.84 236.12,0 229.7,0 C223.28,0 219.98,3.84 219.98,10.56 Z M244.34,6.48 L251.24,6.48 L251.24,42.48 L257.84,42.48 L257.84,6.48 L264.74,6.48 L264.74,0.48 L244.34,0.48 L244.34,6.48 Z M291.14,42.48 L284.42,42.48 C284.06,41.4 283.82,40.74 283.82,37.32 L283.82,30.72 C283.82,26.82 282.5,25.38 279.5,25.38 L277.22,25.38 L277.22,42.48 L270.62,42.48 L270.62,0.48 L280.58,0.48 C287.42,0.48 290.36,3.66 290.36,10.14 L290.36,13.44 C290.36,17.76 288.98,20.58 286.04,21.96 C289.34,23.34 290.42,26.52 290.42,30.9 L290.42,37.38 C290.42,39.42 290.48,40.92 291.14,42.48 Z M280.4,6.48 L277.22,6.48 L277.22,19.38 L279.8,19.38 C282.26,19.38 283.76,18.3 283.76,14.94 L283.76,10.8 C283.76,7.8 282.74,6.48 280.4,6.48 Z M297.74,42.48 L304.34,42.48 L304.34,0.48 L297.74,0.48 L297.74,42.48 Z M319.74,6.48 L331.14,6.48 L331.14,0.48 L313.14,0.48 L313.14,42.48 L331.14,42.48 L331.14,36.48 L319.74,36.48 L319.74,24.18 L328.8,24.18 L328.8,18.18 L319.74,18.18 L319.74,6.48 Z M338.38,10.56 C338.38,22.56 351.28,24.18 351.28,32.82 C351.28,35.82 349.96,36.9 347.86,36.9 C345.76,36.9 344.44,35.82 344.44,32.82 L344.44,29.82 L338.2,29.82 L338.2,32.4 C338.2,39.12 341.56,42.96 348.04,42.96 C354.52,42.96 357.88,39.12 357.88,32.4 C357.88,20.4 344.98,18.78 344.98,10.14 C344.98,7.14 346.18,6 348.28,6 C350.38,6 351.58,7.14 351.58,10.14 L351.58,11.88 L357.82,11.88 L357.82,10.56 C357.82,3.84 354.52,0 348.1,0 C341.68,0 338.38,3.84 338.38,10.56 Z" id="LUKE-INDUSTRIES-Copy-19" fill="#FFFFFF"></path>
    </g>
</svg>