<?xml version="1.0" encoding="UTF-8"?>
<svg width="724px" height="87px" viewBox="0 0 724 87" version="1.1" xmlns="http://www.w3.org/2000/svg" xmlns:xlink="http://www.w3.org/1999/xlink">
    <!-- Generator: Sketch 45.1 (43504) - http://www.bohemiancoding.com/sketch -->
    <title>LUKE INDUSTRIES</title>
    <desc>Created with Sketch.</desc>
    <defs>
        <path d="M58,141.90795 L93.1745784,141.90795 L93.1745784,129.774059 L71.2962324,129.774059 L71.2962324,56.9707113 L58,56.9707113 L58,141.90795 Z M106.430519,56.9707113 L106.430519,121.644351 C106.430519,135.23431 113.19951,143 126.253993,143 C139.308476,143 146.077467,135.23431 146.077467,121.644351 L146.077467,56.9707113 L133.506483,56.9707113 L133.506483,122.493724 C133.506483,128.560669 130.847237,130.74477 126.616618,130.74477 C122.385998,130.74477 119.726752,128.560669 119.726752,122.493724 L119.726752,56.9707113 L106.430519,56.9707113 Z M193.540987,141.90795 L207.199844,141.90795 L188.705994,94.8284519 L207.199844,56.9707113 L193.903612,56.9707113 L176.497635,93.9790795 L176.497635,56.9707113 L163.201402,56.9707113 L163.201402,141.90795 L176.497635,141.90795 L176.497635,115.820084 L180.607379,108.054393 L193.540987,141.90795 Z M233.590851,69.1046025 L256.557071,69.1046025 L256.557071,56.9707113 L220.294619,56.9707113 L220.294619,141.90795 L256.557071,141.90795 L256.557071,129.774059 L233.590851,129.774059 L233.590851,104.899582 L251.842952,104.899582 L251.842952,92.7656904 L233.590851,92.7656904 L233.590851,69.1046025 Z M299.628805,141.90795 L312.925038,141.90795 L312.925038,56.9707113 L299.628805,56.9707113 L299.628805,141.90795 Z M359.058935,141.90795 L372.717792,141.90795 L372.717792,56.9707113 L360.872057,56.9707113 L360.872057,107.811715 L347.213201,56.9707113 L330.532473,56.9707113 L330.532473,141.90795 L342.499082,141.90795 L342.499082,80.3891213 L359.058935,141.90795 Z M390.325227,141.90795 L390.325227,56.9707113 L411.357449,56.9707113 C424.653681,56.9707113 431.180923,64.3723849 431.180923,77.9623431 L431.180923,120.916318 C431.180923,134.506276 424.653681,141.90795 411.357449,141.90795 L390.325227,141.90795 Z M411.115699,69.1046025 L403.621459,69.1046025 L403.621459,129.774059 L411.115699,129.774059 C415.346319,129.774059 417.88469,127.589958 417.88469,121.523013 L417.88469,77.3556485 C417.88469,71.2887029 415.346319,69.1046025 411.115699,69.1046025 Z M447.09611,56.9707113 L447.09611,121.644351 C447.09611,135.23431 453.865101,143 466.919584,143 C479.974066,143 486.743057,135.23431 486.743057,121.644351 L486.743057,56.9707113 L474.172074,56.9707113 L474.172074,122.493724 C474.172074,128.560669 471.512828,130.74477 467.282208,130.74477 C463.051589,130.74477 460.392342,128.560669 460.392342,122.493724 L460.392342,56.9707113 L447.09611,56.9707113 Z M501.167455,77.3556485 C501.167455,101.623431 527.155546,104.899582 527.155546,122.372385 C527.155546,128.439331 524.496299,130.623431 520.26568,130.623431 C516.03506,130.623431 513.375814,128.439331 513.375814,122.372385 L513.375814,116.305439 L500.804831,116.305439 L500.804831,121.523013 C500.804831,135.112971 507.573822,142.878661 520.628304,142.878661 C533.682787,142.878661 540.451778,135.112971 540.451778,121.523013 C540.451778,97.2552301 514.463687,93.9790795 514.463687,76.5062762 C514.463687,70.4393305 516.881184,68.1338912 521.111804,68.1338912 C525.342423,68.1338912 527.75992,70.4393305 527.75992,76.5062762 L527.75992,80.0251046 L540.330903,80.0251046 L540.330903,77.3556485 C540.330903,63.7656904 533.682787,56 520.749179,56 C507.815571,56 501.167455,63.7656904 501.167455,77.3556485 Z M550.24264,69.1046025 L564.143247,69.1046025 L564.143247,141.90795 L577.439479,141.90795 L577.439479,69.1046025 L591.340086,69.1046025 L591.340086,56.9707113 L550.24264,56.9707113 L550.24264,69.1046025 Z M645.532306,141.90795 L631.994324,141.90795 C631.269075,139.723849 630.785575,138.389121 630.785575,131.472803 L630.785575,118.125523 C630.785575,110.238494 628.126329,107.32636 622.082587,107.32636 L617.489343,107.32636 L617.489343,141.90795 L604.19311,141.90795 L604.19311,56.9707113 L624.258334,56.9707113 C638.038066,56.9707113 643.960933,63.4016736 643.960933,76.5062762 L643.960933,83.1799163 C643.960933,91.916318 641.180811,97.6192469 635.257944,100.410042 C641.90606,103.200837 644.081808,109.631799 644.081808,118.48954 L644.081808,131.594142 C644.081808,135.719665 644.202682,138.753138 645.532306,141.90795 Z M623.895709,69.1046025 L617.489343,69.1046025 L617.489343,95.1924686 L622.686961,95.1924686 C627.642829,95.1924686 630.6647,93.0083682 630.6647,86.2133891 L630.6647,77.8410042 C630.6647,71.7740586 628.609828,69.1046025 623.895709,69.1046025 Z M660.843119,141.90795 L674.139351,141.90795 L674.139351,56.9707113 L660.843119,56.9707113 L660.843119,141.90795 Z M705.163893,69.1046025 L728.130113,69.1046025 L728.130113,56.9707113 L691.867661,56.9707113 L691.867661,141.90795 L728.130113,141.90795 L728.130113,129.774059 L705.163893,129.774059 L705.163893,104.899582 L723.415994,104.899582 L723.415994,92.7656904 L705.163893,92.7656904 L705.163893,69.1046025 Z M742.715677,77.3556485 C742.715677,101.623431 768.703768,104.899582 768.703768,122.372385 C768.703768,128.439331 766.044521,130.623431 761.813902,130.623431 C757.583282,130.623431 754.924036,128.439331 754.924036,122.372385 L754.924036,116.305439 L742.353052,116.305439 L742.353052,121.523013 C742.353052,135.112971 749.122044,142.878661 762.176526,142.878661 C775.231009,142.878661 782,135.112971 782,121.523013 C782,97.2552301 756.011909,93.9790795 756.011909,76.5062762 C756.011909,70.4393305 758.429406,68.1338912 762.660026,68.1338912 C766.890645,68.1338912 769.308142,70.4393305 769.308142,76.5062762 L769.308142,80.0251046 L781.879125,80.0251046 L781.879125,77.3556485 C781.879125,63.7656904 775.231009,56 762.297401,56 C749.363793,56 742.715677,63.7656904 742.715677,77.3556485 Z" id="path-1"></path>
    </defs>
    <g id="Page-1" stroke="none" stroke-width="1" fill="none" fill-rule="evenodd">
        <g id="Group-24-Copy" transform="translate(-58.000000, -56.000000)">
            <mask id="mask-2" fill="white">
                <use xlink:href="#path-1"></use>
            </mask>
            <use id="LUKE-INDUSTRIES" fill="#000000" xlink:href="#path-1"></use>
        </g>
    </g>
</svg>